
        <svg xmlns="http://www.w3.org/2000/svg" xmlns:xlink="http://www.w3.org/1999/xlink" version="1.1" width="3137.299771167048" height="779.8627002288331" viewBox="0 0 3137.299771167048 779.8627002288331">
			
			<g transform="scale(6.864988558352404) translate(10, 10)">
				<defs id="SvgjsDefs7546"/><g id="SvgjsG7547" featureKey="symbolFeature-0" transform="matrix(1.1857856951689074,0,0,1.1857856951689074,-11.462990098073982,-11.540066801537844)" fill="#fff"><path xmlns="http://www.w3.org/2000/svg" d="M86.03,60.168c-0.846-7.203-6.723-12.885-14.013-13.43v-1.055c0-2.44-1.984-4.426-4.426-4.426H32.77  c-2.44,0-4.426,1.985-4.426,4.426v1.988C22.377,47.434,17.5,42.943,16.66,37.15c1.869-0.755,3.192-2.586,3.192-4.723h-2.951  c0,1.182-0.96,2.142-2.142,2.142s-2.142-0.96-2.142-2.142H9.667c0,2.447,1.735,4.495,4.039,4.982  c0.976,7.302,7.129,12.986,14.638,13.225v16.733c0,2.441,1.986,4.427,4.426,4.427h5.427v7.496c-3.731,0.695-6.567,3.971-6.567,7.901  v1.476h16.087v-1.476c0-3.931-2.836-7.205-6.569-7.901v-7.496h18.067v7.496c-3.732,0.695-6.569,3.971-6.569,7.901v1.476h16.087  v-1.476c0-3.931-2.835-7.206-6.566-7.901v-7.496h5.426c2.441,0,4.426-1.985,4.426-4.427v-17.67  c5.671,0.528,10.226,4.915,11.029,10.503c-2.053,0.658-3.544,2.582-3.544,4.851h2.95c0-1.182,0.961-2.142,2.143-2.142  s2.142,0.96,2.142,2.142h2.951C89.688,62.741,88.142,60.789,86.03,60.168z M44.547,85.717h-9.75c0.634-2.091,2.58-3.617,4.873-3.617  C41.967,82.1,43.914,83.626,44.547,85.717z M65.563,85.717h-9.749c0.634-2.091,2.58-3.617,4.876-3.617  C62.985,82.1,64.931,83.626,65.563,85.717z M69.067,67.368c0,0.813-0.662,1.476-1.476,1.476H32.77c-0.813,0-1.475-0.662-1.475-1.476  V45.683c0-0.813,0.662-1.475,1.475-1.475h34.822c0.813,0,1.476,0.662,1.476,1.475V67.368z"/><path xmlns="http://www.w3.org/2000/svg" d="M43.774,32.919c1.801,0,3.266-1.466,3.266-3.268s-1.465-3.267-3.266-3.267s-3.266,1.465-3.266,3.267  S41.974,32.919,43.774,32.919z M43.774,29.335c0.174,0,0.316,0.141,0.316,0.315c0,0.176-0.142,0.318-0.316,0.318  c-0.174,0-0.315-0.142-0.315-0.318C43.459,29.477,43.6,29.335,43.774,29.335z"/><path xmlns="http://www.w3.org/2000/svg" d="M56.244,32.919c1.801,0,3.266-1.466,3.266-3.268s-1.465-3.267-3.266-3.267s-3.268,1.465-3.268,3.267  S54.443,32.919,56.244,32.919z M56.244,29.335c0.174,0,0.315,0.141,0.315,0.315c0,0.176-0.142,0.318-0.315,0.318  s-0.316-0.142-0.316-0.318C55.928,29.477,56.07,29.335,56.244,29.335z"/><path xmlns="http://www.w3.org/2000/svg" d="M41.984,38.821h16.721c4.61,0,8.36-3.972,8.36-8.853c0-4.881-3.75-8.853-8.36-8.853h-7.377V16.28  c1.161-0.554,1.967-1.736,1.967-3.106c0-1.897-1.544-3.442-3.442-3.442c-1.898,0-3.442,1.544-3.442,3.442  c0,1.37,0.807,2.553,1.968,3.106v4.836h-6.394c-4.61,0-8.36,3.972-8.36,8.853C33.624,34.85,37.374,38.821,41.984,38.821z   M49.853,12.682c0.271,0,0.492,0.221,0.492,0.492c0,0.271-0.221,0.492-0.492,0.492c-0.271,0-0.492-0.221-0.492-0.492  C49.36,12.903,49.582,12.682,49.853,12.682z M41.984,24.067h16.721c2.982,0,5.409,2.646,5.409,5.902  c0,3.254-2.427,5.901-5.409,5.901H41.984c-2.982,0-5.41-2.647-5.41-5.901C36.574,26.713,39.002,24.067,41.984,24.067z"/><path xmlns="http://www.w3.org/2000/svg" d="M41.984,50.624H38.05c-2.441,0-4.426,1.985-4.426,4.426v3.936c0,2.439,1.985,4.426,4.426,4.426h3.934  c2.44,0,4.426-1.986,4.426-4.426V55.05C46.41,52.609,44.424,50.624,41.984,50.624z M43.459,58.985c0,0.813-0.663,1.475-1.476,1.475  H38.05c-0.814,0-1.476-0.661-1.476-1.475V55.05c0-0.813,0.662-1.475,1.476-1.475h3.934c0.813,0,1.476,0.661,1.476,1.475V58.985z"/><rect xmlns="http://www.w3.org/2000/svg" x="52.804" y="47.674" width="11.803" height="2.95"/><rect xmlns="http://www.w3.org/2000/svg" x="52.804" y="52.592" width="11.803" height="2.95"/><rect xmlns="http://www.w3.org/2000/svg" x="52.804" y="57.51" width="11.803" height="2.95"/><rect xmlns="http://www.w3.org/2000/svg" x="52.804" y="62.428" width="11.803" height="2.95"/></g><g id="SvgjsG7548" featureKey="sloganFeature-0" transform="matrix(1.7628485052065836,0,0,1.7628485052065836,103.90464262470609,33.898202241968704)" fill="#fff"><path d="M3.6328 6.25 c0.46875 -1.1458 1.1458 -2.1223 2.0312 -2.9296 c0.8073 -0.8073 1.849 -1.4584 3.125 -1.9532 s2.6172 -0.74219 4.0234 -0.74219 l4.3359 0 l0 2.9688 l-4.2969 0 c-1.0156 0 -1.9141 0.16926 -2.6953 0.50781 c-0.83332 0.33855 -1.5104 0.78125 -2.0312 1.3281 c-0.54688 0.52082 -0.98957 1.1979 -1.3281 2.0312 c-0.3125 0.7552 -0.46875 1.6016 -0.46875 2.5391 s0.15625 1.7839 0.46875 2.5391 c0.3125 0.78125 0.7552 1.4583 1.3281 2.0313 c0.52082 0.52082 1.1979 0.95051 2.0312 1.2891 c0.83332 0.3125 1.7318 0.46875 2.6953 0.46875 l4.2969 0 l0 2.9688 l-4.3359 0 c-1.4583 0 -2.7864 -0.23438 -3.9844 -0.70313 c-1.25 -0.52082 -2.3047 -1.1849 -3.1641 -1.9922 c-0.88543 -0.83332 -1.5625 -1.8229 -2.0313 -2.9687 c-0.4948 -1.1979 -0.74219 -2.4219 -0.74219 -3.6719 c0 -1.3281 0.24738 -2.5651 0.74219 -3.7109 z M27.0469 8.437 l0 -7.7734 l-3.2813 0 l0 18.672 l3.2813 0 l0 -10.898 z M35.992000000000004 0.6640000000000015 l0 7.7734 l-5.7031 0 l0 3.0469 l5.7031 0 l0 7.8516 l3.2422 0 l0 -18.672 l-3.2422 0 z M51.6719 16.3281 c-0.39063 -0.078125 -0.75523 -0.19535 -1.0938 -0.3516 c-0.72918 -0.33855 -1.3672 -0.8073 -1.9141 -1.4063 c-0.52082 -0.54688 -0.9375 -1.2239 -1.25 -2.0313 c-0.28645 -0.8073 -0.42969 -1.6276 -0.42969 -2.4609 l0 -0.078125 l0 -0.11719 c0 -0.85938 0.14324 -1.6927 0.42969 -2.5 c0.33855 -0.83332 0.75523 -1.4974 1.25 -1.9922 c0.52082 -0.59895 1.1458 -1.0547 1.875 -1.3672 c0.4427 -0.20832 0.82031 -0.33852 1.1328 -0.39059 l0 -2.9297 c-0.91145 0.1302 -1.7188 0.35156 -2.4219 0.66406 c-1.1458 0.4948 -2.1224 1.1589 -2.9297 1.9922 s-1.4453 1.8229 -1.9141 2.9687 s-0.70313 2.3438 -0.70313 3.5938 l0 0.078125 l0 0.11719 c0 1.2761 0.23438 2.474 0.70313 3.5938 c0.41668 1.1198 1.0417 2.0964 1.875 2.9297 c0.83332 0.85938 1.8099 1.5234 2.9297 1.9922 c0.70313 0.3125 1.5234 0.53387 2.4609 0.66406 l0 -2.9688 z M62.297 10 l0.000038147 -0.11719 c0 -1.2761 -0.23438 -2.474 -0.70313 -3.5938 c-0.46875 -1.1458 -1.1068 -2.1354 -1.9141 -2.9687 c-0.78125 -0.83332 -1.7448 -1.4844 -2.8906 -1.9531 c-0.65105 -0.3125 -1.4453 -0.53387 -2.3828 -0.66406 l0 2.9688 l0.46875 0.15625 c0.23438 0.078125 0.41668 0.14324 0.54688 0.19531 c0.72918 0.33855 1.3672 0.8073 1.9141 1.4063 c0.52082 0.54688 0.9375 1.2239 1.25 2.0313 c0.28645 0.8073 0.42969 1.6276 0.42969 2.4609 l0 0.078125 l0 0.11719 c0 0.85938 -0.14324 1.6927 -0.42969 2.5 c-0.33855 0.83332 -0.75523 1.4974 -1.25 1.9922 c-0.52082 0.59895 -1.1458 1.0547 -1.875 1.3672 c-0.33855 0.15625 -0.69012 0.27344 -1.0547 0.35156 l0 2.9688 c0.78125 -0.10418 1.5625 -0.32555 2.3438 -0.6641 c1.0677 -0.4427 2.0443 -1.1068 2.9297 -1.9922 c0.85938 -0.91145 1.4974 -1.901 1.9141 -2.9687 c0.46875 -1.1458 0.70313 -2.3438 0.70313 -3.5938 l0 -0.078125 z M81.219 4.375 c-0.33855 -0.72918 -0.80734 -1.3802 -1.4063 -1.9532 c-0.625 -0.54688 -1.3672 -0.97656 -2.2266 -1.2891 c-0.9375 -0.28645 -1.9271 -0.42969 -2.9688 -0.42969 l-7.3047 0 l0 2.9297 l7.0313 0 c1.1719 0 2.1484 0.28645 2.9297 0.85938 c0.72918 0.54688 1.0938 1.3802 1.0938 2.5 c0 1.0156 -0.35156 1.8359 -1.0547 2.4609 c-0.7552 0.59895 -1.7448 0.89844 -2.9687 0.89844 l-7.0313 0 l0 8.9453 l3.2422 0 l0 -5.9766 l3.6719 0 c0.96355 0 1.9401 -0.14324 2.9297 -0.42969 c0.91145 -0.28645 1.6927 -0.69008 2.3438 -1.2109 c0.67707 -0.52082 1.2109 -1.1849 1.6016 -1.9922 c0.39063 -0.78125 0.58594 -1.6927 0.58594 -2.7344 c0 -0.98957 -0.15625 -1.8489 -0.46875 -2.5781 z M98.461 0.7029999999999994 c-1.4323 0 -2.7604 0.2343 -3.9844 0.70305 c-1.1979 0.46875 -2.2396 1.1198 -3.125 1.9531 c-0.85938 0.78125 -1.5364 1.7708 -2.0313 2.9688 c-0.41668 1.0156 -0.65105 2.1224 -0.70313 3.3203 l0 1.1719 l3.4375 0 l0 -1.1719 c0.05207 -0.88543 0.19531 -1.6016 0.42969 -2.1484 c0.3125 -0.7552 0.74219 -1.4323 1.2891 -2.0312 c0.65105 -0.59895 1.3281 -1.0416 2.0313 -1.3281 c0.8073 -0.3125 1.6927 -0.46875 2.6563 -0.46875 l4.9219 0 l0 -2.9688 l-4.9219 0 z M99.945 9.492 l0.000038147 0.74215 l0.039063 0 c-0.05207 0.83332 -0.20832 1.6016 -0.46875 2.3047 c-0.33855 0.8073 -0.76824 1.4714 -1.2891 1.9922 c-0.57293 0.57293 -1.25 1.0156 -2.0313 1.3281 c-0.8073 0.3125 -1.6927 0.46875 -2.6563 0.46875 l-4.9219 0 l0 2.9688 l4.9219 0 c1.4323 0 2.7604 -0.23438 3.9844 -0.70313 c1.1979 -0.46875 2.2396 -1.1198 3.125 -1.9531 c0.91145 -0.91145 1.5885 -1.901 2.0312 -2.9687 c0.46875 -1.0417 0.70313 -2.1875 0.70313 -3.4375 l0 -0.74219 l-3.4375 0 z M119.141 3.75 l5.8984 0 l0 -3.0469 l-15.078 0 l0 3.0469 l9.1797 0 z M115.8594 6.797000000000001 l3.2813 0 l0 12.5 l-3.2813 0 l0 -12.5 z M137.6719 16.3281 c-0.39063 -0.078125 -0.75523 -0.19535 -1.0938 -0.3516 c-0.72918 -0.33855 -1.3672 -0.8073 -1.9141 -1.4063 c-0.52082 -0.54688 -0.9375 -1.2239 -1.25 -2.0313 c-0.28645 -0.8073 -0.42969 -1.6276 -0.42969 -2.4609 l0 -0.078125 l0 -0.11719 c0 -0.85938 0.14324 -1.6927 0.42969 -2.5 c0.33855 -0.83332 0.75523 -1.4974 1.25 -1.9922 c0.52082 -0.59895 1.1458 -1.0547 1.875 -1.3672 c0.4427 -0.20832 0.82031 -0.33852 1.1328 -0.39059 l0 -2.9297 c-0.91145 0.1302 -1.7188 0.35156 -2.4219 0.66406 c-1.1458 0.4948 -2.1224 1.1589 -2.9297 1.9922 s-1.4453 1.8229 -1.9141 2.9687 s-0.70313 2.3438 -0.70313 3.5938 l0 0.078125 l0 0.11719 c0 1.2761 0.23438 2.474 0.70313 3.5938 c0.41668 1.1198 1.0417 2.0964 1.875 2.9297 c0.83332 0.85938 1.8099 1.5234 2.9297 1.9922 c0.70313 0.3125 1.5234 0.53387 2.4609 0.66406 l0 -2.9688 z M148.297 10 l0.000038147 -0.11719 c0 -1.2761 -0.23438 -2.474 -0.70313 -3.5938 c-0.46875 -1.1458 -1.1068 -2.1354 -1.9141 -2.9687 c-0.78125 -0.83332 -1.7448 -1.4844 -2.8906 -1.9531 c-0.65105 -0.3125 -1.4453 -0.53387 -2.3828 -0.66406 l0 2.9688 l0.46875 0.15625 c0.23438 0.078125 0.41668 0.14324 0.54688 0.19531 c0.72918 0.33855 1.3672 0.8073 1.9141 1.4063 c0.52082 0.54688 0.9375 1.2239 1.25 2.0313 c0.28645 0.8073 0.42969 1.6276 0.42969 2.4609 l0 0.078125 l0 0.11719 c0 0.85938 -0.14324 1.6927 -0.42969 2.5 c-0.33855 0.83332 -0.75523 1.4974 -1.25 1.9922 c-0.52082 0.59895 -1.1458 1.0547 -1.875 1.3672 c-0.33855 0.15625 -0.69012 0.27344 -1.0547 0.35156 l0 2.9688 c0.78125 -0.10418 1.5625 -0.32555 2.3438 -0.6641 c1.0677 -0.4427 2.0443 -1.1068 2.9297 -1.9922 c0.85938 -0.91145 1.4974 -1.901 1.9141 -2.9687 c0.46875 -1.1458 0.70313 -2.3438 0.70313 -3.5938 l0 -0.078125 z M168.391 19.29687 l-5.0391 -7.0313 c0.67707 -0.20832 1.276 -0.4557 1.7968 -0.74215 c0.57293 -0.36457 1.0417 -0.7682 1.4063 -1.2109 c0.41668 -0.4948 0.71617 -1.0287 0.89848 -1.6016 c0.23438 -0.625 0.35156 -1.3281 0.35156 -2.1094 c0 -0.91145 -0.15625 -1.7318 -0.46875 -2.4609 c-0.3125 -0.70313 -0.76824 -1.3151 -1.3672 -1.8359 c-0.57293 -0.4948 -1.3021 -0.88543 -2.1875 -1.1719 c-0.91145 -0.28645 -1.875 -0.42969 -2.8906 -0.42969 l-8.2813 0 l0 2.9688 l8.0078 0 c1.2239 0 2.1745 0.26043 2.8515 0.78125 s1.0156 1.3021 1.0156 2.3438 c0 0.96355 -0.33855 1.7188 -1.0156 2.2656 c-0.67707 0.57293 -1.6146 0.85938 -2.8125 0.85938 l-8.0469 0 l0 9.375 l3.2422 0 l0 -6.4844 l4.1016 0 l4.5703 6.4844 l3.8672 0 l0 0 z M175.0469 0.7029999999999994 l13.906 0 l0 2.9688 l-13.906 0 l0 -2.9688 z M175.0469 16.3281 l13.867 0 l0 2.9688 l-13.867 0 l0 -2.9688 z M175.0469 8.437 l12.539 0 l0 2.9297 l-12.539 0 l0 -2.9297 z"/></g>
			</g>
		</svg>
	