
        <svg xmlns="http://www.w3.org/2000/svg" xmlns:xlink="http://www.w3.org/1999/xlink" version="1.1" width="3162.3731703588383" height="908.6595774682744" viewBox="0 0 3162.3731703588383 908.6595774682744">
			
			<g transform="scale(8.118658517941906) translate(10, 10)">
				<defs id="SvgjsDefs2445"/><g id="SvgjsG2446" featureKey="symbolFeature-0" transform="matrix(2.1766838481532953,0,0,2.1766838481532953,-4.353367696306591,-10.632590437951936)" fill="#fff"><g xmlns="http://www.w3.org/2000/svg"><g><g><path d="M43.4301758,40.0859375H8.5698242C7.4287109,40.0859375,6.5,39.1572266,6.5,38.0166016V12.9560547     c0-1.140625,0.9287109-2.0693359,2.0698242-2.0693359h34.8603516c1.1411133,0,2.0698242,0.9287109,2.0698242,2.0693359     v25.0605469C45.5,39.1572266,44.5712891,40.0859375,43.4301758,40.0859375z M8.5698242,12.8867188L8.5,38.0166016     l34.9301758,0.0693359L43.5,12.9560547c0-0.0371094-0.0317383-0.0693359-0.0698242-0.0693359H8.5698242z"/></g><g><path d="M29.0722656,47.1152344c-0.5522461,0-1-0.4472656-1-1v-7.0244141c0-0.5527344,0.4477539-1,1-1s1,0.4472656,1,1v7.0244141     C30.0722656,46.6679688,29.6245117,47.1152344,29.0722656,47.1152344z"/></g><g><path d="M22.9301758,47.1152344c-0.5522461,0-1-0.4472656-1-1v-7.0244141c0-0.5527344,0.4477539-1,1-1s1,0.4472656,1,1v7.0244141     C23.9301758,46.6679688,23.4824219,47.1152344,22.9301758,47.1152344z"/></g><g><path d="M17.0009766,36.1152344c-2.2055664,0-4-1.7939453-4-4s1.7944336-4,4-4     c0.0551758,0,0.1098633,0.0048828,0.1645508,0.0136719l18.0004883,3     c0.4819336,0.0800781,0.8354492,0.4970703,0.8354492,0.9863281s-0.3535156,0.90625-0.8354492,0.9863281l-18.0004883,3     C17.1108398,36.1103516,17.0561523,36.1152344,17.0009766,36.1152344z M16.9262695,30.1162109     c-1.0683594,0.0400391-1.925293,0.9208984-1.925293,1.9990234s0.8569336,1.9589844,1.925293,1.9990234l11.9921875-1.9990234     L16.9262695,30.1162109z"/></g><g><path d="M7.5004883,31.9365234c-0.081543,0-0.1645508-0.0097656-0.2475586-0.03125     C4.1601563,31.1171875,2,28.3339844,2,25.1367188s2.1601563-5.9814453,5.2529297-6.7695313     c0.5356445-0.140625,1.0791016,0.1865234,1.2163086,0.7216797c0.1362305,0.5351563-0.1870117,1.0800781-0.722168,1.2158203     C5.5410156,20.8671875,4,22.8544922,4,25.1367188s1.5410156,4.2685547,3.7470703,4.8310547     c0.5351563,0.1357422,0.8583984,0.6806641,0.722168,1.2158203C8.3535156,31.6357422,7.9467773,31.9365234,7.5004883,31.9365234z"/></g><g><path d="M44.4995117,31.9462891c-0.4453125,0-0.8510742-0.2988281-0.9677734-0.75     c-0.1381836-0.5341797,0.1831055-1.0800781,0.7177734-1.2177734C46.4580078,29.4072266,48,27.4160156,48,25.1367188     c0-2.2822266-1.5410156-4.2695313-3.7470703-4.8320313c-0.5351563-0.1357422-0.8583984-0.6806641-0.722168-1.2158203     c0.1367188-0.5351563,0.6777344-0.859375,1.2163086-0.7216797C47.8398438,19.1552734,50,21.9394531,50,25.1367188     c0,3.1914063-2.1586914,5.9785156-5.2495117,6.7773438C44.6665039,31.9365234,44.5820313,31.9462891,44.4995117,31.9462891z"/></g><g><path d="M32.0014648,12.8867188c-0.5522461,0-1-0.4472656-1-1c0-2.7578125-2.2436523-5.0019531-5.0014648-5.0019531     s-5.0014648,2.2441406-5.0014648,5.0019531c0,0.5527344-0.4477539,1-1,1s-1-0.4472656-1-1     c0-3.8613281,3.140625-7.0019531,7.0014648-7.0019531s7.0014648,3.140625,7.0014648,7.0019531     C33.0014648,12.4394531,32.5537109,12.8867188,32.0014648,12.8867188z"/></g></g><g><path d="M12.9995117,26.1152344c-0.2084961,0-0.4189453-0.0654297-0.5991211-0.2001953    c-0.4418945-0.3310547-0.53125-0.9580078-0.199707-1.3994141l6-8c0.3310547-0.4423828,0.9570313-0.53125,1.3999023-0.2001953    c0.4418945,0.3310547,0.53125,0.9580078,0.199707,1.3994141l-6,8    C13.6040039,25.9775391,13.3037109,26.1152344,12.9995117,26.1152344z"/></g><g><path d="M19.0014648,26.1152344c-0.3041992,0-0.6044922-0.1376953-0.8007813-0.4003906l-6-8    c-0.331543-0.4414063-0.2421875-1.0683594,0.199707-1.3994141c0.4443359-0.3310547,1.0693359-0.2421875,1.3999023,0.2001953l6,8    c0.331543,0.4414063,0.2421875,1.0683594-0.199707,1.3994141C19.4204102,26.0498047,19.2099609,26.1152344,19.0014648,26.1152344z    "/></g><g><path d="M30.9995117,26.1152344c-0.2084961,0-0.4189453-0.0654297-0.5991211-0.2001953    c-0.4418945-0.3310547-0.53125-0.9580078-0.199707-1.3994141l6-8c0.331543-0.4423828,0.9580078-0.53125,1.3999023-0.2001953    s0.53125,0.9580078,0.199707,1.3994141l-6,8C31.6040039,25.9775391,31.3037109,26.1152344,30.9995117,26.1152344z"/></g><g><path d="M37.0014648,26.1152344c-0.3041992,0-0.6044922-0.1376953-0.8007813-0.4003906l-6-8    c-0.331543-0.4414063-0.2421875-1.0683594,0.199707-1.3994141c0.4438477-0.3310547,1.0698242-0.2421875,1.3999023,0.2001953l6,8    c0.331543,0.4414063,0.2421875,1.0683594-0.199707,1.3994141C37.4204102,26.0498047,37.2099609,26.1152344,37.0014648,26.1152344z    "/></g></g></g><g id="SvgjsG2447" featureKey="nameFeature-0" transform="matrix(1.0447633299248695,0,0,1.0447633299248695,117.96001580252539,25.694046086684903)" fill="#fff"><path d="M7.2656 12.5 c0.9375 -2.2916 2.2916 -4.2447 4.0624 -5.8593 c1.6146 -1.6146 3.698 -2.9167 6.2501 -3.9063 s5.2344 -1.4844 8.0469 -1.4844 l8.6719 0 l0 5.9375 l-8.5938 0 c-2.0313 0 -3.8281 0.33852 -5.3906 1.0156 c-1.6666 0.67711 -3.0208 1.5625 -4.0624 2.6563 c-1.0938 1.0416 -1.9791 2.3958 -2.6563 4.0624 c-0.625 1.5104 -0.9375 3.2031 -0.9375 5.0781 s0.3125 3.5677 0.9375 5.0781 c0.625 1.5625 1.5104 2.9166 2.6563 4.0625 c1.0416 1.0416 2.3958 1.901 4.0624 2.5781 c1.6666 0.625 3.4635 0.9375 5.3906 0.9375 l8.5938 0 l0 5.9375 l-8.6719 0 c-2.9166 0 -5.5729 -0.46875 -7.9688 -1.4063 c-2.5 -1.0416 -4.6094 -2.3698 -6.3281 -3.9844 c-1.7709 -1.6666 -3.125 -3.6458 -4.0625 -5.9374 c-0.98961 -2.3959 -1.4844 -4.8438 -1.4844 -7.3438 c0 -2.6563 0.49477 -5.1302 1.4844 -7.4219 z M52.094 16.875 l0 -15.547 l-6.5625 0 l0 37.344 l6.5625 0 l0 -21.797 z M69.98400000000001 1.328000000000003 l0 15.547 l-11.406 0 l0 6.0938 l11.406 0 l0 15.703 l6.4844 0 l0 -37.344 l-6.4844 0 z M99.344 32.6562 c-0.78125 -0.15625 -1.5105 -0.3907 -2.1876 -0.7032 c-1.4584 -0.67711 -2.7344 -1.6146 -3.8281 -2.8125 c-1.0416 -1.0938 -1.875 -2.4479 -2.5 -4.0625 c-0.57289 -1.6146 -0.85938 -3.2552 -0.85938 -4.9219 l0 -0.15625 l0 -0.23438 c0 -1.7188 0.28648 -3.3854 0.85938 -5 c0.67711 -1.6666 1.5105 -2.9948 2.5001 -3.9844 c1.0416 -1.1979 2.2916 -2.1094 3.75 -2.7344 c0.88539 -0.41664 1.6406 -0.67703 2.2656 -0.78117 l0 -5.8594 c-1.8229 0.26039 -3.4375 0.70313 -4.8438 1.3281 c-2.2916 0.98961 -4.2448 2.3177 -5.8594 3.9844 s-2.8906 3.6458 -3.8281 5.9374 s-1.4063 4.6875 -1.4063 7.1875 l0 0.15625 l0 0.23438 c0 2.5521 0.46875 4.948 1.4063 7.1876 c0.83336 2.2396 2.0834 4.1927 3.75 5.8594 c1.6666 1.7188 3.6198 3.0469 5.8594 3.9844 c1.4063 0.625 3.0469 1.0677 4.9219 1.3281 l0 -5.9375 z M120.594 20 l0.000076294 -0.23438 c0 -2.5521 -0.46875 -4.948 -1.4063 -7.1876 c-0.9375 -2.2916 -2.2135 -4.2708 -3.8281 -5.9374 c-1.5625 -1.6666 -3.4896 -2.9688 -5.7813 -3.9063 c-1.3021 -0.625 -2.8906 -1.0677 -4.7656 -1.3281 l0 5.9375 l0.9375 0.3125 c0.46875 0.15625 0.83336 0.28648 1.0938 0.39063 c1.4584 0.67711 2.7344 1.6146 3.8281 2.8125 c1.0416 1.0938 1.875 2.4479 2.5 4.0625 c0.57289 1.6146 0.85938 3.2552 0.85938 4.9219 l0 0.15625 l0 0.23438 c0 1.7188 -0.28648 3.3854 -0.85938 5 c-0.67711 1.6666 -1.5105 2.9948 -2.5001 3.9844 c-1.0416 1.1979 -2.2916 2.1094 -3.75 2.7344 c-0.67711 0.3125 -1.3802 0.54688 -2.1094 0.70313 l0 5.9375 c1.5625 -0.20836 3.125 -0.65109 4.6875 -1.3282 c2.1354 -0.88539 4.0885 -2.2135 5.8594 -3.9844 c1.7188 -1.8229 2.9948 -3.802 3.8281 -5.9374 c0.9375 -2.2916 1.4063 -4.6875 1.4063 -7.1875 l0 -0.15625 z M156.438 8.75 c-0.67711 -1.4584 -1.6147 -2.7605 -2.8126 -3.9063 c-1.25 -1.0938 -2.7344 -1.9531 -4.4531 -2.5781 c-1.875 -0.57289 -3.8541 -0.85938 -5.9375 -0.85938 l-14.609 0 l0 5.8594 l14.063 0 c2.3438 0 4.2969 0.57289 5.8594 1.7188 c1.4584 1.0938 2.1875 2.7604 2.1875 5 c0 2.0313 -0.70313 3.6719 -2.1094 4.9219 c-1.5104 1.1979 -3.4895 1.7969 -5.9374 1.7969 l-14.063 0 l0 17.891 l6.4844 0 l0 -11.953 l7.3438 0 c1.9271 0 3.8802 -0.28648 5.8594 -0.85938 c1.8229 -0.57289 3.3854 -1.3802 4.6875 -2.4218 c1.3541 -1.0416 2.4219 -2.3698 3.2031 -3.9844 c0.78125 -1.5625 1.1719 -3.3854 1.1719 -5.4688 c0 -1.9791 -0.3125 -3.6979 -0.9375 -5.1563 z M197.438 8.75 c-0.67711 -1.4584 -1.6147 -2.7605 -2.8126 -3.9063 c-1.25 -1.0938 -2.7344 -1.9531 -4.4531 -2.5781 c-1.875 -0.57289 -3.8541 -0.85938 -5.9375 -0.85938 l-14.609 0 l0 5.8594 l14.063 0 c2.3438 0 4.2969 0.57289 5.8594 1.7188 c1.4584 1.0938 2.1875 2.7604 2.1875 5 c0 2.0313 -0.70313 3.6719 -2.1094 4.9219 c-1.5104 1.1979 -3.4895 1.7969 -5.9374 1.7969 l-14.063 0 l0 17.891 l6.4844 0 l0 -11.953 l7.3438 0 c1.9271 0 3.8802 -0.28648 5.8594 -0.85938 c1.8229 -0.57289 3.3854 -1.3802 4.6875 -2.4218 c1.3541 -1.0416 2.4219 -2.3698 3.2031 -3.9844 c0.78125 -1.5625 1.1719 -3.3854 1.1719 -5.4688 c0 -1.9791 -0.3125 -3.6979 -0.9375 -5.1563 z M240.781 38.5937 l-10.078 -14.063 c1.3541 -0.41664 2.552 -0.91141 3.5937 -1.4843 c1.1459 -0.72914 2.0834 -1.5364 2.8125 -2.4218 c0.83336 -0.98961 1.4323 -2.0573 1.797 -3.2032 c0.46875 -1.25 0.70313 -2.6563 0.70313 -4.2188 c0 -1.8229 -0.3125 -3.4635 -0.9375 -4.9219 c-0.625 -1.4063 -1.5365 -2.6302 -2.7344 -3.6719 c-1.1459 -0.98961 -2.6042 -1.7709 -4.3751 -2.3438 c-1.8229 -0.57289 -3.75 -0.85938 -5.7813 -0.85938 l-16.563 0 l0 5.9375 l16.016 0 c2.4479 0 4.3489 0.52086 5.703 1.5625 s2.0313 2.6041 2.0313 4.6875 c0 1.9271 -0.67711 3.4375 -2.0313 4.5313 c-1.3541 1.1459 -3.2291 1.7188 -5.625 1.7188 l-16.094 0 l0 18.75 l6.4844 0 l0 -12.969 l8.2031 0 l9.1406 12.969 l7.7344 0 l0 0 z"/></g>
			</g>
		</svg>
	